<?xml version="1.0" encoding="utf-8"?>
<!-- Generator: Adobe Illustrator 28.0.0, SVG Export Plug-In . SVG Version: 6.00 Build 0)  -->
<svg version="1.0" id="Layer_1" xmlns="http://www.w3.org/2000/svg" xmlns:xlink="http://www.w3.org/1999/xlink" x="0px" y="0px"
	 viewBox="0 0 1026.8 304.8" style="enable-background:new 0 0 1026.8 304.8;" xml:space="preserve">
<style type="text/css">
	.st0{fill:#EA3639;}
	.st1{fill:#FFFFFF;}
</style>
<path class="st0" d="M1014.7,0H12.1C5.4,0,0,5.4,0,12.1v280.6c0,6.7,5.4,12.1,12.1,12.1h1002.7c6.7,0,12.1-5.4,12.1-12.1V12.1
	C1026.8,5.4,1021.4,0,1014.7,0z"/>
<path class="st1" d="M296.3,152.8c0,43.8,0,87.7,0,131.5c0,9.9-2.8,12.8-12.8,12.8c-87,0-173.9,0-260.9-0.1c-0.5,0-1,0-1.5,0
	c-9.4-0.5-10.9-2-11.2-11.3c-0.1-2.3,0-4.7,0-7c0-85.3,0-170.7,0-256c0-2-0.1-4,0.2-6c0.9-5.9,3.6-8.1,10-8.1c23.5,0,47,0,70.5,0
	c64,0,128,0,191.9,0c11.3,0,13.8,2.4,13.8,13.7C296.3,65.8,296.3,109.3,296.3,152.8z"/>
<g>
	<path class="st1" d="M397.3,120.5c-2.8,1-5.7,3.6-7.2,6.2c-3.9,6.6-7,13.6-10.5,20.4c-4.5,9-9.1,18-14,27.8
		c-6-12-11.5-23.1-17.2-34.2c-2.8-5.5-5.5-11.1-8.7-16.3c-2.5-4-6.5-5.5-11.3-3.9c-4.4,1.5-5.4,4.9-5.4,9c0,18.2,0,36.3,0,54.5
		c0,3.9,1.2,7.1,5.8,7.2c4.5,0.1,5.9-2.8,5.9-6.9c-0.1-10.7,0-21.3,0-32c0-3.9,0-7.8,0-11.6c1.8,1.1,2.6,2.4,3.2,3.6
		c6.7,13.4,13.4,26.8,20.1,40.2c1.7,3.3,3.3,6.8,7.8,6.8c4.4,0,6.1-3.3,7.8-6.7c7.4-14.9,14.9-29.7,22.3-44.6c0.4,0,0.7,0.1,1.1,0.1
		c0,14.8,0,29.6,0,44.4c0,3.9,1.3,6.7,5.5,6.8c4.1,0.1,6-2.5,6-6.4c0-18.8,0.1-37.7,0-56.5C408.1,122.1,403.2,118.3,397.3,120.5z"/>
	<path class="st1" d="M755.5,181c-13.7,0-27.3,0-41,0c-1.8,0-3.6,0-6,0c0-5.7,0.1-10.8,0-15.9c-0.1-3.6,1.1-5,4.9-4.9
		c11.7,0.2,23.3,0.1,35,0c2.1,0,4.6,0.1,6.3-0.9c1.6-0.8,3.3-3.1,3.2-4.6c-0.1-1.6-2.1-3.4-3.7-4.4c-1.1-0.7-2.9-0.4-4.4-0.4
		c-11.8,0-23.7,0-35.5,0c-1.8,0-3.5-0.2-5.5-0.3c0-6.6,0-12.7,0-19.3c2.5,0,4.7,0,6.8,0c13,0,26,0,39-0.1c3.5,0,6.5-1.3,6.3-5.4
		c-0.1-3.8-2.9-4.9-6.3-4.9c-17.2,0-34.3,0-51.5,0c-4.2,0-6.5,2.1-6.5,6.5c0,19.5,0,39,0,58.5c0,4,1.9,6.4,6,6.4
		c17.7,0.1,35.3,0.1,53,0c3.5,0,5.7-1.7,5.5-5.6C761,182,758.7,181,755.5,181z"/>
	<path class="st1" d="M682.7,122.2c-2.4-3.8-5.7-2.4-8.8-0.8c-1,0.5-2,1.2-2.9,1.9c-9.7,7-19.5,13.9-29.2,20.9
		c-3.2,2.3-6.4,4.5-10.4,7.2c-0.1-2.7-0.3-4.4-0.3-6.2c0-6.2,0-12.3,0-18.5c0-4-1.7-6.9-6.2-6.8c-4.3,0.1-5.5,3-5.5,6.8
		c0,19.1,0.1,38.3,0,57.4c0,4.1,1.3,7.1,5.8,7c4.4-0.1,5.8-3.2,5.8-7.1c0-5-0.1-10,0.1-15c0.1-1.8,0.8-4.1,2.1-5.2
		c3.1-2.7,6.6-4.9,10.8-7.9c1.2,1.6,2.2,3.1,3.4,4.5c7.8,8.7,15.6,17.3,23.5,25.9c1.3,1.5,2.8,3.4,4.5,3.8c2.2,0.5,5.4,0.5,7-0.8
		c1.1-0.9,0.8-4.4,0.2-6.5c-0.4-1.6-2.2-2.8-3.5-4.2c-8.6-9.5-17.2-18.9-26.2-28.9c9.4-6.7,18.2-13,27-19.3
		C682.8,128.5,685,125.9,682.7,122.2z"/>
	<path class="st1" d="M573.5,178.6c-7.4-8-14.9-16.1-23.2-24.9c8.6-8.4,16.8-16.2,24.8-24.2c2.4-2.3,3.3-5.2,0.7-8
		c-2.6-2.8-5.6-1.8-8,0.3c-3.2,2.9-6.1,6.1-9.2,9.1c-5.1,4.9-10.3,9.8-16.4,15.7c-1.1-1.6-2.1-3.4-3.5-4.8
		c-6.6-6.6-13.2-13.2-19.9-19.6c-2.5-2.4-5.5-3.5-8.4-0.7c-2.8,2.7-1.7,5.4,0.5,7.9c0.9,1,1.8,1.9,2.8,2.8c7.3,7,14.6,14,22.1,21.2
		c-1.9,2.3-3.1,3.7-4.3,5c-7.3,7.9-14.9,15.7-21.9,23.9c-1.3,1.5-1.6,5.2-0.7,6.9c1.6,3,4.8,2.6,7.3,0.6c2.6-2.1,5-4.4,7.2-6.8
		c6.5-6.8,12.9-13.8,19.6-20.9c7.6,8,14.7,15.7,21.9,23.3c1.9,2,4.2,4,6.7,5.1c1.5,0.6,4.4,0,5.6-1.2c1-1,1.2-3.8,0.6-5.3
		C577,182,575.1,180.3,573.5,178.6z"/>
	<path class="st1" d="M834.2,154c2-2.8,4.6-5.3,5.9-8.4c4.6-11.2-1.8-23.1-14.4-24.4c-15-1.5-30.2-1-45.3-1.1c-4,0-5.3,3.1-5.4,6.5
		c-0.1,19.3-0.2,38.6,0,57.9c0,5.3,2.1,6.8,7.7,6.8c9.3,0.1,18.6,0.3,27.9-0.1c6.6-0.2,13.3-0.7,19.7-2.1c6.5-1.4,11-5.9,12.8-12.6
		C845.8,166.8,843.5,161,834.2,154z M801.9,129.7c6.3-0.1,12.6,0.3,18.9,0.6c6.1,0.3,9.1,3.6,9,9.6c-0.1,6.1-3.3,9.7-9.4,9.9
		c-5.2,0.2-10.3,0-15.5,0c-5,0-10-0.1-15,0c-2.8,0.1-3.9-0.9-3.8-3.7C786.5,126.2,784,130.1,801.9,129.7z M823.8,180.8
		c-11.5,0.6-23,0.5-34.5,0.5c-0.9,0-2.5-1.4-2.6-2.3c-0.2-6.4-0.1-12.9-0.1-19.6c12.9,0,25.2-0.2,37.5,0.1c4.7,0.1,8.3,5,8.5,10.3
		C832.9,175,829.2,180.5,823.8,180.8z"/>
	<path class="st1" d="M1000.8,153.8c1.9-2.3,4.2-4.4,5.5-7c5.6-10.9-0.8-24.2-13.5-25.5c-15.2-1.6-30.6-1.1-45.9-1.2
		c-3.8,0-5.2,3-5.2,6.6c0,19.3,0,38.7,0,58c0,4.3,2.2,6.6,6.4,6.6c12.8,0,25.7,0.4,38.5-0.2c7.9-0.4,16.1-1.7,21-9.4
		C1013.6,172.5,1010.9,162.1,1000.8,153.8z M953.2,145.9c0.2-5.1,0.1-10.2,0.1-16.7c12.7,0.6,24.9,0.9,37,1.8
		c5.1,0.4,6.5,4.8,6.4,9.2c-0.1,4.4-1.8,8.1-6.8,9.2c-1.3,0.3-2.6,0.4-3.9,0.5c-9.5,0-18.9-0.1-28.4,0.1
		C954.5,150.1,953,149.3,953.2,145.9z M990.1,180.8c-11.3,0.6-22.6,0.5-33.9,0.5c-1,0-2.8-1.8-2.9-2.8c-0.3-6.1-0.1-12.2-0.1-19.1
		c13,0,25.3-0.2,37.5,0.1c4.9,0.1,8.3,4.8,8.4,10.1C999.3,175.6,996,180.5,990.1,180.8z"/>
	<path class="st1" d="M898.4,126c-1.4-2.5-4.8-5.5-7.2-5.5c-2.5,0-5.7,3-7.2,5.5c-6.4,10.9-12.2,22.1-18.3,33.2
		c-4.4,8-9,15.9-13,24.2c-0.9,1.8-0.3,6.3,0.8,6.7c2.1,0.9,5.2,0.2,7.7-0.6c1.1-0.3,1.9-2.2,2.7-3.5c1.8-3.2,3.8-6.3,5.2-9.7
		c1.5-3.8,4.1-4.7,7.8-4.7c8.5,0.1,16.9,0,26.4,0c5.5-1.4,9.4,1.3,11.6,7.4c1,2.6,2.6,5,4,7.5c2.7,4.6,6.4,6.1,9.8,3.9
		c4.4-2.8,1.8-6.2,0.2-9.1C918.8,162.9,908.7,144.4,898.4,126z M876.7,161.8c4.9-9.1,9.4-17.4,14.5-26.8c5,9.2,9.6,17.7,14.6,26.8
		C895.9,161.8,886.8,161.8,876.7,161.8z"/>
	<path class="st1" d="M466.1,125.8c-1.4-2.5-4.7-5.3-7.3-5.4c-2.2-0.1-5.5,2.8-6.9,5.2c-6.4,10.9-12.2,22.1-18.3,33.2
		c-4.5,8.2-9,16.3-13.4,24.5c-2.4,4.6-0.6,7.9,5.8,8.1c1-0.9,3.4-2.4,4.9-4.5c2.4-3.6,3.9-7.8,6.4-11.2c1.3-1.8,4-3.7,6.2-3.8
		c10.5-0.3,20.9-0.2,31.4,0.1c1.8,0.1,4.2,1.7,5.3,3.4c2.5,3.5,4.2,7.5,6.4,11.3c2.7,4.6,6.6,6.2,9.8,4c4.1-2.9,1.7-6.2,0.1-9.2
		C486.4,162.8,476.4,144.2,466.1,125.8z M444.3,161.8c4.9-9.1,9.5-17.5,14.6-26.8c5,9.3,9.7,17.7,14.6,26.8
		C463.6,161.8,454.5,161.8,444.3,161.8z"/>
</g>
<path class="st1" d="M201.2,140.3c0,13.5,0,25.6,0,37.8c0,20,0,40,0,60c0,7.6,2,9.6,9.4,9.7c9.8,0.1,19.7,0.1,29.5,0
	c8.2-0.1,9.9-1.9,9.8-10.2c-0.1-21-0.2-42-0.2-63c0-36.5,0-73,0-109.5c0-6.5-1.3-8.1-7.2-8.1c-10.7-0.1-21.3,0-32,0.1
	c-4.8,0.1-8.2,2.4-9.7,7.1c-1.1,3.5-2.1,7-3.5,10.4c-12.2,29.8-48.8,39.6-74.1,19.7c-9.8-7.7-14.7-18.3-17.5-30.1
	c-1.2-5-3.7-7.4-9-7.3c-10.8,0.2-21.7,0-32.5,0.1c-5.9,0-7.8,1.9-7.8,7.8c-0.1,57.7-0.2,115.4-0.2,173c0,8.3,2.2,10.1,10.6,10
	c9.2-0.1,18.3-0.3,27.5-0.3c9.5-0.1,10.6-1.1,10.6-10.7c0-27.7,0-55.3,0-83c0-4.1,0.5-8.2,0.9-12.9
	C137.5,155.9,168.6,156.2,201.2,140.3z"/>
<path d="M201.2,140.3c-32.6,15.9-63.7,15.6-95.4,0.6c-0.3,4.7-0.9,8.8-0.9,12.9c-0.1,27.7,0,55.3,0,83c0,9.6-1.1,10.6-10.6,10.7
	c-9.2,0.1-18.3,0.2-27.5,0.3c-8.4,0.1-10.6-1.8-10.6-10c0-57.7,0.1-115.4,0.2-173c0-5.9,1.9-7.8,7.8-7.8c10.8-0.1,21.7,0.1,32.5-0.1
	c5.3-0.1,7.8,2.3,9,7.3c2.7,11.8,7.7,22.4,17.5,30.1c25.2,19.9,61.8,10.2,74.1-19.7c1.4-3.4,2.4-6.9,3.5-10.4
	c1.5-4.7,4.9-7.1,9.7-7.1c10.7-0.1,21.3-0.2,32-0.1c5.9,0,7.2,1.6,7.2,8.1c0,36.5,0,73,0,109.5c0,21,0.1,42,0.2,63
	c0,8.3-1.7,10.1-9.8,10.2c-9.8,0.1-19.7,0.1-29.5,0c-7.4-0.1-9.3-2.1-9.4-9.7c0-20,0-40,0-60C201.2,166,201.2,153.8,201.2,140.3z"/>
</svg>
